<svg xmlns="http://www.w3.org/2000/svg" height="448" width="64">
    <defs>
        <marker id="arrow" orient="auto" markerHeight="4" markerWidth="5" refX="0" refY="2">
            <path d="M 0 0 L 5 2 L 0 4 Z" />
        </marker>
    </defs>

    <!-- Through points. -->
    <g transform="translate(0, 0)">
        <line x1="0" y1="32" x2="64" y2="32" stroke="black" stroke-width="2" stroke-dasharray="10, 5" stroke-dashoffset="3"/>
        <circle cx="16" cy="32" r="2" />
        <circle cx="48" cy="32" r="2" />
        <path d="M 32 6 A 30 32 0 0 1 32 52" stroke="black" fill="transparent" stroke-width="2" style="marker-end: url(#arrow);"/>
    </g>

    <!-- Point to point. -->
    <g transform="translate(0, 64)">
        <line x1="0" y1="32" x2="64" y2="32" stroke="black" stroke-width="2" stroke-dasharray="10, 5" stroke-dashoffset="3"/>
        <circle cx="32" cy="2" r="2" />
        <circle cx="32" cy="62" r="2" />
        <path d="M 36 8 A 25 24 0 0 1 36 44" stroke="black" fill="transparent" stroke-width="2" style="marker-end: url(#arrow);"/>
    </g>

    <!-- line to line. -->
    <g transform="translate(0, 128)">
        <line x1="0" y1="32" x2="64" y2="32" stroke="black" stroke-width="2" stroke-dasharray="10, 5" stroke-dashoffset="3"/>
        <line x1="26" x2="60" y1="20" y2="4" stroke="black" stroke-width="2" />
        <circle cx="26" cy="20" r="2" />
        <circle cx="60" cy="4" r="2" />
        <line x1="4" x2="60" y1="44" y2="60" stroke="black" stroke-width="2" />
        <circle cx="4" cy="44" r="2" />
        <circle cx="60" cy="60" r="2" />
        <path d="M 46 16 A 10 16 0 0 1 46 42" stroke="black" fill="transparent" stroke-width="2" style="marker-end: url(#arrow);"/>
    </g>

    <!-- 4 -->
    <g transform="translate(0, 192)">
        <line x1="0" y1="20" x2="64" y2="20" stroke="black" stroke-width="2" stroke-dasharray="10, 5" stroke-dashoffset="3"/>
        <circle cx="48" cy="20" r="2" />
        <line x1="20" y1="4" x2="20" y2="60" stroke="black" stroke-width="2" />
        <circle cx="20" cy="4" r="2" />
        <circle cx="20" cy="60" r="2" />
        <path d="M 32 6 A 10 26 0 0 1 32 52" stroke="black" fill="transparent" stroke-width="2" style="marker-end: url(#arrow);"/>
    </g>

    <!-- 5 -->
    <g transform="translate(0, 256)">
        <circle cx="34" cy="10" r="2" />
        <line x1="0" y1="32" x2="64" y2="32" stroke="black" stroke-width="2" stroke-dasharray="10, 5" stroke-dashoffset="3"/>
        <circle cx="54" cy="32" r="2" />
        <line x1="4" x2="60" y1="24" y2="60" stroke="black" stroke-width="2" />
        <circle cx="4" cy="24" r="2" />
        <circle cx="60" cy="60" r="2" />
        <path d="M 42 16 A 20 16 0 0 1 46 34" stroke="black" fill="transparent" stroke-width="2" style="marker-end: url(#arrow);"/>
    </g>

    <!-- 6 -->
    <g transform="translate(0, 320)">
        <line x1="4" y1="4" x2="60" y2="50" stroke="black" stroke-width="2" stroke-dasharray="10, 5" stroke-dashoffset="3"/>
        <line x1="9" x2="37" y1="29" y2="9" stroke="black" stroke-width="2" />
        <circle cx="9" cy="29" r="2" />
        <circle cx="37" cy="9" r="2" />
        <path d="M 20 4 A 1 4 40 0 0 6 16" stroke="black" fill="transparent" stroke-width="2" style="marker-end: url(#arrow);"/>
        <circle cx="24" cy="4" r="2" />
        <line x1="40" x2="50" y1="60" y2="10" stroke="black" stroke-width="2" />
        <circle cx="40" cy="60" r="2" />
        <circle cx="50" cy="10" r="2" />
        <path d="M 56 34 A 10 10 0 0 1 52 50" stroke="black" fill="transparent" stroke-width="2" style="marker-end: url(#arrow);"/>
        <circle cx="54" cy="28" r="2" />
    </g>

    <!-- 7 -->
    <g transform="translate(0, 384)">
        <line x1="26" y1="64" x2="42" y2="0" stroke="black" stroke-width="2" stroke-dasharray="10, 5" stroke-dashoffset="3"/>
        <line x1="8" x2="56" y1="4" y2="16" stroke="black" stroke-width="2" />
        <circle cx="8" cy="4" r="2" />
        <circle cx="56" cy="16" r="2" />
        <line x1="4" x2="60" y1="50" y2="40" stroke="black" stroke-width="2" />
        <circle cx="4" cy="50" r="2" />
        <circle cx="60" cy="40" r="2" />
        <path d="M 24 30 A 10 20 0 0 1 42 30" stroke="black" fill="transparent" stroke-width="2" style="marker-end: url(#arrow);"/>
        <circle cx="20" cy="36" r="2" />
    </g>
</svg>